<?xml version="1.0" encoding="utf-8"?>
<!-- Generator: Adobe Illustrator 21.0.0, SVG Export Plug-In . SVG Version: 6.00 Build 0)  -->
<svg version="1.1" id="Layer_1" xmlns="http://www.w3.org/2000/svg" xmlns:xlink="http://www.w3.org/1999/xlink" x="0px" y="0px"
	 viewBox="0 0 583.4 489.3" style="enable-background:new 0 0 583.4 489.3;" xml:space="preserve">
<style type="text/css">
	.st0{opacity:0.2;fill-rule:evenodd;clip-rule:evenodd;}
	.st1{fill-rule:evenodd;clip-rule:evenodd;fill:#FFFFFF;}
	.st2{fill:#96B0C4;}
	.st3{fill-rule:evenodd;clip-rule:evenodd;fill:#A2B9CC;}
	.st4{fill:#3F5979;}
	.st5{fill-rule:evenodd;clip-rule:evenodd;fill:#192C3F;}
	.st6{fill:#B38246;}
	.st7{fill-rule:evenodd;clip-rule:evenodd;fill:#51351A;}
	.st8{fill:#2A2522;}
	.st9{fill:#FFFFFF;stroke:#B38246;stroke-linecap:round;stroke-linejoin:round;stroke-miterlimit:10;}
	.st10{fill:#A5192E;}
	.st11{fill-rule:evenodd;clip-rule:evenodd;fill:#B38246;}
	.st12{fill-rule:evenodd;clip-rule:evenodd;fill:#2A2522;}
	.st13{fill:#F9F7F7;}
</style>
<polygon class="st0" points="313.3,322 326,312.9 536.3,332 528.3,41 110.3,55 42.3,287 290.9,309.7 269.3,336 327.3,344 289.3,374 
	329.3,387 321.3,441 362.3,378 323.3,372 364.3,335 "/>
<polygon class="st1" points="303.3,312 317.6,301.7 526.3,322 518.3,31 100.3,45 33.3,274 282.1,298.2 259.3,326 317.3,334 
	279.3,364 319.3,377 311.3,431 352.3,368 313.3,362 354.3,325 "/>
</svg>
