<?xml version="1.0" encoding="utf-8"?>
<!-- Generator: Adobe Illustrator 21.0.0, SVG Export Plug-In . SVG Version: 6.00 Build 0)  -->
<svg version="1.1" id="Layer_1" xmlns="http://www.w3.org/2000/svg" xmlns:xlink="http://www.w3.org/1999/xlink" x="0px" y="0px"
	 viewBox="0 0 274.1 281" style="enable-background:new 0 0 274.1 281;" xml:space="preserve">
<style type="text/css">
	.st0{opacity:0.2;fill-rule:evenodd;clip-rule:evenodd;}
	.st1{fill-rule:evenodd;clip-rule:evenodd;fill:#FFFFFF;}
	.st2{fill:#96B0C4;}
	.st3{fill-rule:evenodd;clip-rule:evenodd;fill:#A2B9CC;}
	.st4{fill:#3F5979;}
	.st5{fill-rule:evenodd;clip-rule:evenodd;fill:#192C3F;}
	.st6{fill:#B38246;}
	.st7{fill-rule:evenodd;clip-rule:evenodd;fill:#51351A;}
	.st8{fill:#2A2522;}
	.st9{fill:#FFFFFF;stroke:#B38246;stroke-linecap:round;stroke-linejoin:round;stroke-miterlimit:10;}
	.st10{fill:#A5192E;}
	.st11{fill-rule:evenodd;clip-rule:evenodd;fill:#B38246;}
	.st12{fill-rule:evenodd;clip-rule:evenodd;fill:#2A2522;}
	.st13{fill:#F9F7F7;}
</style>
<g>
	<g>
		<path class="st2" d="M225.9,153.4c-5.6,50.4-50.7,87.2-100.9,82.2c-50.3-5-86.8-50-81.4-100.6C49,84.3,94.4,47.2,144.9,52.4
			C195.3,57.6,231.5,102.9,225.9,153.4z"/>
		<g>
			<path class="st3" d="M156.4,30.6c-2.1-0.4-4.2-0.7-6.3-1l0.4-3.2c2.1,0.3,4.3,0.6,6.4,1L156.4,30.6z M137.5,28.7l0.1-3.3
				c2.2,0,4.4,0.1,6.5,0.3l-0.3,3.2C141.8,28.8,139.7,28.7,137.5,28.7z M168.7,33.5c-2-0.6-4.1-1.2-6.1-1.7l0.8-3.2
				c2.1,0.5,4.2,1.1,6.3,1.7L168.7,33.5z M124.9,29.1l-0.3-3.3c2.2-0.2,4.4-0.3,6.5-0.4l0.1,3.3C129.1,28.8,127,28.9,124.9,29.1z
				 M180.6,37.9c-1.9-0.8-3.9-1.6-5.9-2.3l1.1-3.1c2,0.7,4.1,1.5,6.1,2.4L180.6,37.9z M112.3,31l-0.6-3.2c2.1-0.4,4.3-0.8,6.4-1.1
				l0.5,3.2C116.5,30.2,114.4,30.6,112.3,31z M191.9,43.5c-1.8-1-3.7-2-5.6-3l1.4-2.9c1.9,1,3.9,2,5.8,3.1L191.9,43.5z M100.1,34.3
				l-1-3.1c2.1-0.7,4.2-1.3,6.3-1.9l0.8,3.2C104.1,33,102.1,33.6,100.1,34.3z M202.5,50.4c-1.7-1.2-3.5-2.5-5.2-3.6l1.8-2.8
				c1.8,1.2,3.6,2.4,5.4,3.7L202.5,50.4z M88.2,38.9l-1.3-3c2-0.9,4-1.8,6-2.5l1.2,3C92.1,37.2,90.1,38,88.2,38.9z M212.3,58.4
				c-1.5-1.4-3.1-2.8-4.8-4.1l2.1-2.5c1.7,1.4,3.3,2.8,4.9,4.2L212.3,58.4z M76.9,44.8L75.3,42c1.9-1.1,3.8-2.2,5.7-3.2l1.5,2.9
				C80.6,42.7,78.8,43.7,76.9,44.8z M221.2,67.4c-1.4-1.6-2.8-3.1-4.3-4.6l2.3-2.3c1.5,1.5,3,3.1,4.4,4.8L221.2,67.4z M66.3,51.9
				l-1.9-2.6c1.7-1.3,3.5-2.6,5.3-3.8l1.8,2.7C69.8,49.4,68,50.6,66.3,51.9z M228.9,77.3c-1.2-1.7-2.5-3.4-3.8-5.1l2.6-2
				c1.3,1.7,2.6,3.4,3.8,5.2L228.9,77.3z M56.6,60.1l-2.2-2.4c1.6-1.5,3.2-3,4.9-4.4l2.1,2.5C59.7,57.2,58.1,58.6,56.6,60.1z
				 M235.6,88.1c-1-1.8-2.1-3.7-3.2-5.5l2.8-1.7c1.1,1.8,2.2,3.7,3.2,5.6L235.6,88.1z M47.8,69.3l-2.5-2.1c1.4-1.6,2.9-3.3,4.4-4.9
				l2.3,2.3C50.6,66.1,49.2,67.7,47.8,69.3z M241,99.5c-0.8-1.9-1.6-3.9-2.6-5.8l2.9-1.4c0.9,2,1.8,4,2.6,5.9L241,99.5z M40,79.5
				l-2.7-1.8c1.2-1.8,2.5-3.6,3.9-5.3l2.6,2C42.5,76,41.2,77.8,40,79.5z M245.1,111.4c-0.6-2-1.2-4-1.9-6l3-1.1c0.7,2,1.4,4.1,2,6.2
				L245.1,111.4z M33.4,90.4l-2.9-1.5c1-1.9,2.1-3.8,3.2-5.7l2.8,1.7C35.5,86.7,34.4,88.6,33.4,90.4z M247.9,123.8
				c-0.3-2.1-0.8-4.2-1.2-6.2l3.2-0.8c0.5,2.1,0.9,4.2,1.2,6.4L247.9,123.8z M28.1,102l-3-1.2c0.8-2,1.7-4,2.6-6l2.9,1.4
				C29.7,98.1,28.9,100.1,28.1,102z M249.3,136.3c-0.1-2.1-0.3-4.2-0.5-6.3l3.2-0.4c0.2,2.1,0.4,4.3,0.5,6.5L249.3,136.3z
				 M24.1,114.1l-3.1-0.8c0.6-2.1,1.2-4.2,1.9-6.3l3.1,1C25.2,110,24.6,112.1,24.1,114.1z M249.3,149c0.1-2.1,0.2-4.2,0.2-6.3l3.2,0
				c0,2.2-0.1,4.3-0.2,6.5L249.3,149z M21.4,126.6l-3.2-0.5c0.3-2.1,0.7-4.3,1.2-6.4l3.2,0.7C22.1,122.4,21.7,124.5,21.4,126.6z
				 M251.1,162.5l-3.2-0.5c0.4-2.1,0.6-4.2,0.9-6.3l0.1-0.4l3.2,0.3l0,0.4C251.7,158.2,251.4,160.4,251.1,162.5z M16.8,139.1
				c0.1-2.2,0.3-4.4,0.5-6.5l3.2,0.3c-0.2,2.1-0.4,4.2-0.5,6.3L16.8,139.1z M248.2,175.2l-3.1-0.8c0.6-2,1.1-4.1,1.6-6.1l3.1,0.7
				C249.3,171,248.8,173.1,248.2,175.2z M16.9,152.2c-0.1-2.2-0.2-4.4-0.2-6.5l3.2,0c0,2.1,0.1,4.3,0.2,6.3L16.9,152.2z M244,187.6
				l-3-1.2c0.8-2,1.5-3.9,2.2-5.9l3,1C245.6,183.5,244.8,185.6,244,187.6z M18.4,165.1c-0.4-2.1-0.7-4.3-0.9-6.5l3.2-0.4
				c0.2,2.1,0.5,4.2,0.9,6.3L18.4,165.1z M238.5,199.4l-2.8-1.5c1-1.9,2-3.8,2.9-5.7l2.9,1.4C240.5,195.5,239.5,197.5,238.5,199.4z
				 M21.4,177.9c-0.6-2.1-1.2-4.2-1.7-6.3l3.2-0.8c0.5,2.1,1,4.1,1.6,6.1L21.4,177.9z M231.7,210.5l-2.6-1.8
				c1.2-1.7,2.4-3.5,3.5-5.3l2.7,1.7C234.1,206.9,232.9,208.7,231.7,210.5z M25.7,190.1c-0.8-2-1.6-4-2.3-6.1l3.1-1.1
				c0.7,2,1.5,4,2.3,5.9L25.7,190.1z M223.7,220.9l-2.4-2.1c1.4-1.6,2.7-3.3,4-4.9l2.5,2C226.5,217.5,225.2,219.2,223.7,220.9z
				 M31.3,201.8c-1-1.9-2-3.8-3-5.8l2.9-1.4c0.9,1.9,1.9,3.8,2.9,5.6L31.3,201.8z M214.7,230.3l-2.2-2.4c1.5-1.4,3.1-2.9,4.5-4.4
				l2.3,2.2C217.8,227.2,216.3,228.8,214.7,230.3z M38.2,212.8c-1.2-1.8-2.5-3.6-3.6-5.4l2.8-1.7c1.1,1.8,2.3,3.5,3.5,5.3
				L38.2,212.8z M204.7,238.6l-1.9-2.6c1.7-1.3,3.4-2.6,5-3.9l2.1,2.5C208.2,235.9,206.5,237.3,204.7,238.6z M46.2,223
				c-1.4-1.6-2.8-3.3-4.2-5l2.5-2c1.3,1.6,2.6,3.3,4,4.8L46.2,223z M193.9,245.8l-1.6-2.8c1.8-1.1,3.6-2.2,5.3-3.4l1.8,2.7
				C197.6,243.6,195.8,244.7,193.9,245.8z M55.3,232.2c-1.6-1.4-3.2-3-4.7-4.5l2.3-2.3c1.5,1.5,3,2.9,4.6,4.4L55.3,232.2z
				 M182.4,251.8l-1.3-2.9c1.9-0.9,3.8-1.8,5.7-2.8l1.4,2.9C186.3,250,184.4,250.9,182.4,251.8z M65.4,240.3
				c-1.7-1.2-3.5-2.6-5.2-3.9l2.1-2.5c1.6,1.3,3.3,2.6,5,3.8L65.4,240.3z M170.3,256.5l-1-3.1c2-0.6,4-1.3,5.9-2.1l1.1,3
				C174.4,255.1,172.3,255.9,170.3,256.5z M76.3,247.3c-1.9-1.1-3.8-2.2-5.6-3.3l1.8-2.7c1.8,1.1,3.6,2.2,5.4,3.2L76.3,247.3z
				 M157.8,259.9l-0.6-3.2c2.1-0.4,4.1-0.9,6.1-1.5l0.8,3.1C162,258.9,159.9,259.4,157.8,259.9z M88,253.1c-2-0.8-4-1.8-5.9-2.7
				l1.4-2.9c1.9,0.9,3.8,1.8,5.7,2.6L88,253.1z M145,261.8l-0.3-3.2c2.1-0.2,4.2-0.5,6.3-0.8l0.4,3.2
				C149.3,261.3,147.1,261.6,145,261.8z M100.1,257.4c-2.1-0.6-4.1-1.3-6.2-2l1.1-3c1.9,0.7,4,1.4,6,2L100.1,257.4z M132,262.3
				l0.1-3.2c2.1,0,4.2,0,6.3-0.1l0.1,3.2C136.4,262.3,134.2,262.4,132,262.3z M112.7,260.4c-2.1-0.4-4.2-0.8-6.3-1.3l0.8-3.1
				c2,0.5,4.1,0.9,6.2,1.3L112.7,260.4z M122.2,261.8c-1-0.1-2.1-0.2-3.1-0.4l0.4-3.2c2.1,0.3,4.2,0.5,6.3,0.6l-0.3,3.2
				C124.4,262,123.3,261.9,122.2,261.8z"/>
		</g>
		<g>
			<path class="st4" d="M213.1,152.1c-4.8,43.3-43.5,74.9-86.7,70.6c-43.2-4.3-74.5-43-69.9-86.4c4.6-43.6,43.6-75.4,86.9-70.9
				C186.7,69.8,217.9,108.7,213.1,152.1z"/>
			<path class="st5" d="M143.3,67c-42.4-4.3-80.6,26.8-85.2,69.5c-4.5,42.5,26.2,80.5,68.5,84.7c42.2,4.2,80.2-26.8,84.9-69.2
				C216.2,109.5,185.6,71.4,143.3,67z M126.3,224.4c-44-4.4-76.1-43.9-71.4-88.2c4.7-44.4,44.6-76.9,88.7-72.4
				c44.1,4.5,75.9,44.3,71.1,88.5C209.8,196.4,170.2,228.7,126.3,224.4z"/>
		</g>
		<g>
			<path class="st6" d="M186.5,86.4l-4.8,9.5l-5.1,11.2l-2.8,7.5l-11.2,5.7l-16.8,3.2l-15,4.3l4.3,14l19.5,6.8l26.4,14.5l-21.3,27.7
				c0,0-7.7,8.9-8,11.8c-0.3,2.9-17.8,12.7-24.4,12.1c-6.7-0.7,0.4-3.8,0.4-3.8l1-9.6l-3.2-14.8l-17.6-6.6l-4.2-15l7.9-10.5
				l12.2-14.6l-3.8-10.1l-19.9-7.8l10.4-11.6c0,0-11.8-7-14.5-7.3c-2.7-0.3-2.2-9-2.2-9l8.3-19.3l47.9-3.7L187,85.2"/>
			<path class="st7" d="M127.1,212.8l0.4,0c5.9,0.6,21.7-8.4,22.7-10.8c0.3-3,6.5-10.3,8.4-12.5l20.1-26.1L154,150l-20.2-7.1
				l-5-16.4l16.5-4.8l16.7-3.2l10.5-5.3l2.5-6.9l5.1-11.3l4.6-9.1l-34.9-13.6L103.3,76l-7.8,18.1c-0.1,3.2,0.3,6.5,0.9,7.1l0,0
				c2.7,0.3,12.1,5.8,14.9,7.5l1.7,1l-10.2,11.3l18.4,7.2l4.3,11.7l-12.8,15.3l-7.4,9.8l3.8,13.4l17.7,6.6l3.4,16.2l-1.1,10.5
				l-0.9,0.4C127.9,212.3,127.5,212.5,127.1,212.8z M127.1,216.1c-1.2-0.1-4-0.4-4.3-2.5c-0.3-1.7,1.5-3.1,3.4-4l0.9-8.4l-3-13.7
				l-17.6-6.6l-4.6-16.5l8.4-11.2l11.6-13.9l-3.2-8.5l-21.4-8.4l10.7-11.8c-5.2-3-10.8-6-12.1-6.1c-3.6-0.4-3.8-6.8-3.6-10.7l0-0.3
				l8.8-20.5l49.3-3.8l0.3,0.1l36.8,14.4l-1.1,2.7l1.4,0.7l-4.8,9.5l-5,11.1l-2.9,8l-12.2,6.1l-16.8,3.2l-13.2,3.8l3.5,11.6l19,6.7
				l28,15.4L161,191.6c-3.6,4.2-7.5,9.5-7.7,10.9C152.9,207,134,216.7,127.1,216.1z"/>
		</g>
		<g>
			<path class="st8" d="M128.8,87.7c-4.7,1,7.7,18.8,7.7,18.8s49.1-7.7,57-12.1c7.9-4.4-0.2-9.5-18-11.3
				C157.6,81.2,137.6,85.8,128.8,87.7z"/>
			<path class="st9" d="M175.4,49.4c-2,18-38.5,53.1-38.5,53.1s-28.3-41.7-26.3-59.7c1.9-18.1,18.1-31.2,36-29.3
				C164.5,15.3,177.4,31.4,175.4,49.4z"/>
			<polygon class="st10" points="137.1,102.4 169,64.3 113.8,58.6 			"/>
			<g>
				<path class="st11" d="M147.1,16.5c-16.2-1.7-30.9,10.3-32.7,26.7C113,56,129.7,84.7,138.3,97.9c11.2-11.2,33.6-35.9,35-48.7
					C175.1,32.9,163.3,18.2,147.1,16.5z M137.3,107.2l-2-2.9c-1.2-1.7-28.9-42.8-26.8-61.7c2.1-19.7,19.7-34.1,39.3-32
					c19.5,2,33.6,19.7,31.5,39.3c-2.1,18.9-37.9,53.4-39.4,54.9L137.3,107.2z"/>
			</g>
			<g>
				<path class="st8" d="M139.1,53.3c-0.1,0-0.2-0.1-0.3-0.2C138.9,53.3,139,53.3,139.1,53.3L139.1,53.3L139.1,53.3z"/>
				<path class="st12" d="M137.3,53c-0.1,0-0.2,0.1-0.3,0.1l-0.1,0v0h0c-0.2-0.2,0.1-0.4,0.1-0.7l0.1-0.1c0.2-0.1,0.5-0.1,0.6,0v0h0
					L137.3,53z M136.5,52c-0.3,0.2-0.6,0.4-0.8,0.7c0,0-0.1,0-0.2,0l-0.1-0.1c0-0.3,0.2-0.4,0.4-0.5c0.3-0.1,0.6-0.4,0.8-0.6
					C136.8,51.6,136.6,51.9,136.5,52z M135.5,53.6L135.5,53.6L135.5,53.6L135.5,53.6c0-0.1,0-0.1,0.1-0.1v0.1
					C135.6,53.6,135.5,53.5,135.5,53.6z M138.6,52.9L138.6,52.9c0,0,0.3-0.1,0.5-0.1c0.1,0,0.3-0.4,0.3-0.8c0-0.1,0-0.1,0-0.2
					c-0.1-0.3-0.3-0.5-0.6-0.5c-0.3,0-0.4,0-0.5,0.1c0.1,0,0.3,0,0.4,0c-0.3,0-0.5,0.1-0.5,0.1v0l0,0v0c-0.3,0-0.6,0.1-0.8-0.1
					c-0.1-0.2-0.2-0.3-0.3-0.4c-0.5,0-0.7,0.6-1.1,0.7c-0.4,0.3-0.7,0.7-0.9,1.1l0,1.3c0.1,0.2,0.2,0.5,0.4,0.6l0.5-0.6l0.6-0.4
					C137.3,53.8,137.8,53.1,138.6,52.9L138.6,52.9L138.6,52.9z"/>
				<path class="st12" d="M155.2,48.7L155.2,48.7c0,0-0.1,0-0.2-0.1c0.5,0.1,1-0.3,1.5,0C156.2,48.8,155.7,48.7,155.2,48.7z
					 M154.2,49.1c-0.1,0-0.2,0-0.3-0.1l-0.1-0.1l-0.3,0c-0.1-0.1-0.3-0.1-0.4-0.2c0.1-0.1,0.3,0,0.4-0.1c0,0,0-0.1,0-0.1
					c-0.3-0.3-0.7-0.6-1.1-0.8c-0.4-0.2-0.8-0.4-1-0.7c1.1,0.6,2.5,1.1,3.7,1.7L154.2,49.1z M152.8,48.6l-0.1,0.2l0,0.2l0,0.1
					l-0.2,0c-0.1,0-0.1,0-0.2,0c-0.1,0-0.1,0-0.2,0l-0.1,0c0-0.1,0-0.2,0-0.2c0-0.1,0-0.1,0-0.1l-0.5-0.6l0.1-0.2l1.2,0.7
					L152.8,48.6L152.8,48.6z M144.9,47.5L144.9,47.5L144.9,47.5c0.2-0.5,0.6-0.9,1.2-0.9c1.1-0.1,2.1,0.1,3.3,0l-0.1,0l0.1,0
					C148,47,146.2,46.5,144.9,47.5z M142.8,49.7c-0.3,0.2-0.5,0.4-0.8,0.7l-0.2,0.4c-0.1,0-0.1,0-0.2,0l-0.5-0.3l0,0
					c0.7-0.4,1.6-0.8,2.3-1.3c0,0-0.1,0-0.1,0.1l0.1-0.1C143.3,49.4,143.1,49.6,142.8,49.7z M140.1,51.8c-0.1,0.2-0.1,0.4-0.1,0.6
					l0-0.2C140,51.9,140.1,51.8,140.1,51.8C140.1,51.7,140.1,51.7,140.1,51.8c0-0.3-0.1-0.4-0.2-0.5
					C140.1,51.4,140.1,51.5,140.1,51.8L140.1,51.8L140.1,51.8C140.1,51.7,140.1,51.8,140.1,51.8z M140,47.8
					c-0.5-0.6-0.7-1.5-0.9-2.3c0-0.4-0.2-0.7-0.4-1c-0.2-0.2-0.3-0.4-0.5-0.6c0,0-0.1-0.1-0.1-0.1l-0.3-0.6l0,0
					c0.5,0.5,1,1.1,1.6,1.5c0.3,1.1,0.3,2.3,1,3.2l0,0.1l-0.2,0C140.1,48,140,47.9,140,47.8z M136.1,44.3c-0.3-0.1-0.7-0.2-0.9-0.5
					l0,0l0,0c0-0.1,0.1-0.3,0-0.4l-0.6-0.4l0,0c0-0.2,0.2-0.2,0.2-0.4c-0.1-0.2-0.5-0.3-0.7-0.5c-0.1-0.1-0.1-0.2-0.1-0.3
					c0.1-0.2,0.3-0.2,0.5-0.3c0.1,0,0.2,0.1,0.3,0.1v0h0l0,0c-0.1,0.1-0.2,0.3-0.1,0.5c0.1,0.3,0.4,0.2,0.7,0.4v0l0,0
					c-0.1,0.2-0.2,0.5,0,0.7l0.4,0.2l0,0c0,0.1-0.1,0.2-0.1,0.3C135.8,44,135.9,44.2,136.1,44.3L136.1,44.3L136.1,44.3z M166.3,51.8
					c0-0.1-0.1-0.2-0.3-0.3c-2.1-0.2-4.1-1.3-6-2.2l-1.7-1c0-0.2,0.1-0.5,0-0.6c-2.9-0.7-5.5-2.9-8.6-2.1c-2.9-0.6-5,0.6-6.7,2.7
					c-0.4,0.2-0.7,0.5-1.1,0.5c-1.6-1.4-0.7-4.6-2.8-5.8c-0.9-1-1.7-2-2.5-3c-0.8-1.4-2.6-1.4-4.1-1.5c-0.5,0-1-0.2-1.6-0.1l0,0h0
					c-0.1,0-0.2,0.2-0.2,0.3c0.4,0.4,1.2,0.4,1.6,0.6l0,0l0,0l-0.1,0.1c-0.1,0.1-0.1,0.2-0.1,0.3c0.3,0.5,1.1,0.2,1.5,0.5l0,0l0,0
					c-0.1,0.1-0.3,0.1-0.4,0.2c-0.1,0.2,0,0.3,0,0.5l-0.6-0.4l0,0l0,0c0-0.2-0.1-0.2-0.2-0.3c-0.2-0.1-0.6-0.1-0.9-0.2l0,0
					c-0.1-0.1-0.2-0.1-0.3-0.3l0,0l0,0c0-0.1-0.1-0.2-0.1-0.3l-0.9-0.4v0h0l0-0.1c0.1-0.1,0.1-0.3,0.1-0.4c-2.2-0.5-4.5-0.3-6.7-1
					c-0.1,0-0.1,0.1-0.2,0.1c-0.1,0.1-0.1,0.2,0,0.3c0.3,0.7,1.1,1,1.7,1.2c-0.2,0.1-0.4,0-0.6,0.1c-0.1,0.5,0.5,0.7,0.8,1l1.4,0.3
					h-1.1c0,0.1-0.1,0.2,0,0.3c0.3,0.6,1.2,0.8,1.7,1c0,0.1-0.1,0.1-0.1,0.1c-0.1,0.1-0.1,0.3-0.1,0.4c0.5,0.5,1.2,0.4,1.8,0.6
					c-0.1,0.1,0,0.3,0,0.4c0.7,0.5,1.6,0.3,2.4,0.3c-0.3,0.2-0.8,0.1-1.1,0.4c-0.1,0.2-0.1,0.3,0,0.5c0.5,0.4,1.2,0.3,1.8,0.2
					c0,0.1-0.1,0.2,0,0.2c0.6,0.4,1.3,0.1,2,0l0,0.2c0.3,0.4,0.8,0.4,1.2,0.3l0.8,0.6c-0.1,0.1-0.1,0.2-0.2,0.3
					c-0.1,0.3,0,0.7,0.2,0.8c0.2,0.1,0.4,0,0.6-0.1l0.1,0c-0.1,0.3,0,0.5,0,0.8c0.1,0.3,0.2,0.5,0.4,0.6c0.1,0,0.2-0.2,0.2-0.3
					c0.1-0.1,0.1-0.3,0.2-0.3c0.1,0.2,0,0.5,0.1,0.7c0.3,0.3,0.7,0.5,1.1,0.5c0.1-0.1,0.1-0.2,0.2-0.2c0,0.4,0.4,0.7,0.7,0.9l0,0.1
					c-0.5,0.3-1.1,0.3-1.5,0.7c-0.1,0.2-0.1,0.4-0.1,0.6c0.1,0,0.1,0,0.2-0.1c0.1-0.1,0.2-0.3,0.2-0.3c0.1,0,0.4-0.2,0.7-0.2
					c0,0,0.2,0,0.3,0.1c0,0,0.1,0,0.2-0.1l0,0c0,0,0-0.1,0-0.1l0,0c0,0,0,0,0,0c0.1-0.1,0.3-0.2,0.4-0.2l0,0l0,0
					c0,0-0.1,0.2-0.2,0.4l0-0.1c0,0-0.1,0.1-0.1,0.2c0,0.4,0.4,0.4,0.4,0.9c0,0.1-0.1,0.1-0.1,0.5c-0.1,0.6,0,0.8-0.3,0.9
					c-0.1,0-0.2,0.1-0.3,0.1l0.3-0.1c0.1,0,0.1-0.1,0.1-0.2c0,0,0,0.1,0,0.1l-0.1,0c0,0,0,0,0,0c-0.3,0.1-0.5,0.2-0.6,0.2h0l0,0.1
					l0.1,0.1c1.1,0.6,2.4,0.3,3.6,0.1l-0.4,0.7c-0.1,0.1-0.2,0.3-0.2,0.4c0,0.1,0.2,0.2,0.3,0.2c0.1,0,0.1-0.1,0.3-0.1
					c0.3,0.2,0.3,0.5,0.6,0.5c0.4,0,0.4-0.5,0.6-0.6c0.1,0.2,0,0.4,0.1,0.6c0.2,0.1,0.3,0.2,0.4,0.1c0.3-0.1,0.4-0.4,0.5-0.7
					c0.4,0.4,0.5,0.9,1,1.1l0.1,0c0.1,0,0.1-0.1,0.1-0.1c0.1-0.2-0.1-0.4,0-0.6l0.7,0.6c0.2,0.1,0.6,0,0.7-0.2c0.1-1.1-0.7-2-1.1-3
					l-0.4-0.9c0.7,0.1,0.6-0.8,1.2-1c1.3,0.2,2.2,2.2,3.7,1.8c0.2-0.3-0.1-0.5-0.2-0.7l0.1,0c0.6,0.3,1,1,1.8,0.9l0.1,0l0-0.8
					c1,1,2.5,1,3.2,2.4c0.8,0.7,1.9,1.5,2.9,1.5l0.1-0.1c0-0.4-0.5-0.5-0.7-0.8v-0.1c0.8,0.2,1.5,0.7,2.3,0.6
					c0.2-0.7-0.7-1.1-0.9-1.6l0.1-0.1l0.6,0.5c0.4,0.5,1,1.1,1.7,1c0-0.1,0.1,0,0.1-0.1c0.2-0.5-0.2-0.8-0.4-1.3l-0.9-1
					c1.2,0.4,2.4,1.2,3.8,0.8c0.1-0.1,0.3-0.1,0.4-0.3c0.1-0.1,0-0.4,0-0.5c-0.2-0.2-0.5-0.1-0.7-0.2c0.6,0.1,1.2,0.1,1.7-0.2
					C166.2,52.2,166.3,52.1,166.3,51.8z"/>
			</g>
			<path class="st4" d="M129,34.6c0,0,2.7,1.5,6.3-0.5c3.6-2,5.5-5.8,9.3-5.1c3.8,0.7,3,0.6,6,5.7c3,5.1,5.3,3.7,5.9,4.3
				c0.6,0.6,1.1,1,2.9,0.4c1.8-0.5,1.7,1.2,2.5,1.4c0.8,0.2,1.8,0.1,3.2,0.2c1.4,0.1,4.5,0.6,4.5,0.6s-7.3-20.2-23.7-21.9
				C130.2,18.1,120,33.6,120,33.6s3.2-0.4,4.2,1.1C125.2,36.2,127.1,32.8,129,34.6z"/>
			<g>
				<path class="st13" d="M129.9,61.6c0,0,1.1-1.4,3-1c1.9,0.4,7.8,2.7,7.8,2.7s6.8-0.7,8.5-0.3c1.8,0.4,2.7,0.5,2.7,0.5l-1.5,14.2
					L138.6,79l-10.3-3L129.9,61.6z"/>
				<g>
					<path class="st12" d="M149.5,76.8c-2-0.4-3.7-0.5-5.5-0.4l-3.9,0.7c0.3-4.1,0.8-8.4,1.3-13.2c0.5-0.2,1-0.2,1.5-0.3
						c2.1-0.5,4.3-0.8,6.3-0.6l1.8,0.4l-0.1,1L149.5,76.8z M138.7,76.9c-2.9-1.5-5.8-2.4-8.7-2.7l-0.2,0l1.1-11.9v0l0.1-1.1
						c0.7-0.2,1.7,0,2.7,0.2c0.4,0.1,0.8,0.1,1.1,0.2c1.3,0.3,2.6,0.9,3.9,1.6c0.5,0.2,0.9,0.4,1.4,0.7l-0.9,10.3L138.7,76.9z
						 M153.4,64.7c0-0.5,0.1-0.9,0.1-1.4c-2.9-0.9-5.9-1.4-9.1-0.8c-1.4,0.2-2.5,0.5-3.6,0.8c-1.9-0.9-5.5-2.8-10.1-3
						c-0.6,0.6-1.4,0.4-2,0.4l-0.2,1.3l-0.6,4.8c-0.3,3.1-0.8,6.2-0.9,9.4c4,1.2,8.3,1.9,12.3,2.8h0c4.2,0,8.4,0.2,12.6,0.1l0.4-3
						C152.5,72.4,153.2,68.4,153.4,64.7z"/>
				</g>
			</g>
		</g>
		<g>
			<path class="st8" d="M181.7,116.4c-3-1-1.9,13.2-1.9,13.2s30.1,12.1,36,12.2c5.9,0.1,3.1-5.4-6.4-12.5S187.4,118.3,181.7,116.4z"
				/>
			<path class="st9" d="M220.7,110.4c-7.1,9.6-39.2,17.1-39.2,17.1s-2-33.1,5.1-42.7c7.1-9.6,20.5-11.6,29.9-4.5
				C225.9,87.4,227.8,100.9,220.7,110.4z"/>
			<polygon class="st10" points="181.5,127.6 212.1,116.6 183,94.9 			"/>
			<g>
				<path class="st11" d="M206.2,78.5c-6.6-0.7-13.4,2.1-17.7,7.8c-5,6.8-5.3,28.6-4.8,39c10-2.6,30.8-9,35.8-15.8
					c3.1-4.2,4.4-9.4,3.7-14.5c-0.7-5.2-3.4-9.7-7.5-12.8C212.8,80.1,209.6,78.9,206.2,78.5z M180,130.3l-0.1-2.3
					c-0.1-1.4-1.9-34,5.5-44c7.7-10.4,22.4-12.6,32.7-4.9c5,3.7,8.2,9.2,9.1,15.4c0.9,6.2-0.7,12.4-4.5,17.4
					c-7.4,10-39,17.6-40.4,17.9L180,130.3z"/>
			</g>
			<g>
				<path class="st8" d="M199,100.4c0,0-0.1-0.1-0.1-0.2C198.9,100.3,199,100.4,199,100.4L199,100.4L199,100.4z"/>
				<path class="st12" d="M198.1,99.6c-0.1,0-0.2,0-0.2-0.1l0,0l0,0l0,0c-0.1-0.2,0.2-0.2,0.3-0.4l0.1,0c0.1,0,0.3,0.1,0.4,0.2v0
					l0,0L198.1,99.6z M198,98.8c-0.2,0-0.5,0-0.7,0.1c0,0-0.1,0-0.1-0.1l0-0.1c0.1-0.1,0.3-0.2,0.4-0.2c0.2,0,0.5,0,0.7-0.1
					C198.3,98.7,198.1,98.7,198,98.8z M196.9,99.3L196.9,99.3L196.9,99.3L196.9,99.3c0,0,0,0,0.1,0L196.9,99.3
					C196.9,99.4,196.9,99.3,196.9,99.3z M198.8,100L198.8,100c0,0,0.2,0.1,0.3,0.1c0.1,0.1,0.3-0.1,0.4-0.3l0-0.1
					c0-0.2,0-0.4-0.2-0.5c-0.1-0.1-0.3-0.1-0.3-0.2c0.1,0,0.2,0.1,0.2,0.1C199.1,99,199,99,199,99v0l0,0h0c-0.2-0.1-0.4-0.2-0.4-0.3
					c0-0.1,0-0.2-0.1-0.3c-0.3-0.2-0.6,0.1-0.8,0c-0.3,0-0.6,0.2-0.9,0.3l-0.4,0.8c0,0.2-0.1,0.3,0,0.4l0.5-0.2l0.5,0
					C197.8,100,198.4,99.9,198.8,100L198.8,100L198.8,100z"/>
				<path class="st12" d="M209.6,103.2L209.6,103.2L209.6,103.2c0.2,0.1,0.6,0,0.8,0.4C210.1,103.6,209.8,103.3,209.6,103.2z
					 M208.9,103c-0.1,0-0.1-0.1-0.2-0.1v-0.1l-0.2-0.1c-0.1-0.1-0.1-0.1-0.2-0.2c0.1,0,0.1,0.1,0.3,0.1c0,0,0,0,0,0
					c-0.1-0.3-0.2-0.6-0.4-0.8c-0.2-0.2-0.3-0.5-0.3-0.7c0.4,0.7,1.1,1.5,1.5,2.2L208.9,103z M208.2,102.3L208.2,102.3l-0.2,0.2
					l0,0.1l-0.1-0.1c0-0.1-0.1-0.1-0.1-0.1c0,0-0.1,0-0.1-0.1l0,0c0-0.1,0-0.1,0.1-0.2c0,0,0.1,0,0.1-0.1l-0.1-0.5l0.1-0.1
					L208.2,102.3L208.2,102.3L208.2,102.3z M204.2,99.1L204.2,99.1L204.2,99.1c0.3-0.2,0.6-0.3,0.9-0.1c0.7,0.3,1.2,0.8,1.8,1.1
					l-0.1,0l0.1,0.1C206.1,99.8,205.2,98.9,204.2,99.1z M202.3,99.6c-0.2,0-0.4,0-0.6,0.1l-0.2,0.1c0,0-0.1,0-0.1-0.1l-0.2-0.3l0,0
					c0.6,0,1.2,0.1,1.7,0.1c0,0-0.1,0-0.1,0h0.1C202.7,99.6,202.5,99.6,202.3,99.6z M200.1,99.9c-0.1,0.1-0.2,0.2-0.3,0.3l0.1-0.1
					C200,99.9,200.1,99.9,200.1,99.9L200.1,99.9c0.1-0.2,0.1-0.2,0.1-0.3C200.2,99.6,200.2,99.7,200.1,99.9L200.1,99.9L200.1,99.9z
					 M201.3,97.6c-0.1-0.5,0.1-1.1,0.2-1.6c0.1-0.2,0.1-0.5,0.1-0.7c0-0.2-0.1-0.3-0.1-0.5c0,0,0-0.1,0-0.1l0-0.4l0,0
					c0.1,0.4,0.2,0.9,0.4,1.4c-0.2,0.7-0.6,1.4-0.5,2.1l0,0.1l-0.1,0C201.3,97.7,201.3,97.6,201.3,97.6z M200.3,94.3
					c-0.1-0.2-0.3-0.4-0.3-0.6v0c0-0.1,0.1-0.1,0.1-0.2l-0.2-0.5v0c0-0.1,0.2-0.1,0.2-0.2c0-0.2-0.2-0.3-0.2-0.5c0-0.1,0-0.1,0-0.2
					c0.1-0.1,0.2,0,0.4,0c0.1,0,0.1,0.1,0.1,0.2l0,0l0,0l0,0c-0.1,0.1-0.2,0.1-0.2,0.2c0,0.2,0.2,0.3,0.2,0.5l0,0v0
					c-0.1,0.1-0.3,0.2-0.2,0.4l0.2,0.3v0c0,0.1-0.1,0.1-0.1,0.2C200.2,94,200.3,94.1,200.3,94.3L200.3,94.3L200.3,94.3z
					 M214.7,108.7c0-0.1,0-0.2-0.1-0.2c-1.1-0.8-1.8-2.1-2.6-3.3l-0.6-1.1c0.1-0.1,0.2-0.2,0.2-0.4c-1.4-1.4-2.1-3.5-4.1-4.1
					c-1.4-1.3-3-1.4-4.7-0.7c-0.3,0-0.6,0.1-0.8-0.1c-0.4-1.3,1.2-2.8,0.4-4.2c-0.2-0.9-0.3-1.7-0.4-2.5c0-1.1-1-1.7-1.8-2.2
					c-0.3-0.2-0.5-0.5-0.9-0.6l0,0l0,0c-0.1,0-0.2,0-0.2,0.1c0.1,0.4,0.6,0.6,0.7,0.9h0l0,0l-0.1,0c-0.1,0-0.1,0.1-0.1,0.1
					c0,0.4,0.5,0.5,0.6,0.8l0,0l0,0c-0.1,0-0.2,0-0.3,0c-0.1,0.1-0.1,0.2-0.2,0.3l-0.2-0.4v0l0,0c0-0.1,0-0.2,0-0.3
					c-0.1-0.2-0.3-0.3-0.4-0.4l0,0c-0.1-0.1-0.1-0.2-0.1-0.3v0c0-0.1,0-0.2,0-0.2l-0.4-0.5l0,0h0l0-0.1c0.1,0,0.2-0.1,0.2-0.2
					c-1.1-1-2.4-1.7-3.4-2.8c-0.1,0-0.1,0-0.1,0c-0.1,0-0.1,0.1-0.1,0.2c-0.1,0.5,0.3,0.9,0.6,1.2c-0.1,0-0.2-0.2-0.3-0.2
					c-0.2,0.2,0,0.5,0.1,0.8l0.7,0.7l-0.6-0.4c-0.1,0-0.1,0.1-0.1,0.2c0,0.5,0.4,0.9,0.6,1.1c-0.1,0-0.1,0-0.1,0
					c-0.1,0-0.2,0.1-0.2,0.2c0.1,0.4,0.6,0.7,0.8,0.9c-0.1,0.1-0.1,0.2-0.1,0.2c0.2,0.5,0.8,0.7,1.2,1c-0.3,0-0.5-0.2-0.8-0.2
					c-0.1,0.1-0.2,0.2-0.2,0.3c0.2,0.4,0.6,0.6,1,0.7c0,0.1-0.1,0.1-0.1,0.2c0.2,0.4,0.7,0.5,1.1,0.7l-0.1,0.1
					c0,0.3,0.3,0.5,0.6,0.6l0.2,0.6c-0.1,0-0.1,0.1-0.2,0.1c-0.1,0.1-0.2,0.4-0.1,0.5c0.1,0.1,0.2,0.1,0.4,0.2l0,0
					c-0.2,0.1-0.2,0.3-0.2,0.4c0,0.2-0.1,0.4,0.1,0.5c0.1,0,0.1-0.1,0.2-0.1c0.1,0,0.2-0.1,0.2-0.1c0,0.1-0.2,0.2-0.2,0.4
					c0.1,0.2,0.2,0.5,0.4,0.6c0.1,0,0.1-0.1,0.2,0c-0.1,0.2,0,0.5,0.1,0.8l0,0c-0.4,0-0.8-0.2-1.1-0.1c-0.1,0.1-0.2,0.2-0.2,0.3
					c0,0,0.1,0,0.1,0c0.1,0,0.2-0.1,0.2-0.1c0,0,0.3,0,0.5,0.2c0,0,0.1,0.1,0.1,0.2c0,0,0.1,0,0.2,0c0,0,0.1-0.1,0.1-0.1h0l0,0
					c0.1,0,0.2,0,0.3,0h0l0,0c0,0-0.2,0.1-0.2,0.2l0,0c0,0-0.1,0-0.1,0.1c-0.1,0.2,0.1,0.4-0.1,0.6c0,0-0.1,0-0.2,0.2
					c-0.2,0.3-0.3,0.4-0.4,0.4c-0.1,0-0.1,0-0.2,0l0.2,0c0,0,0.1,0,0.1,0c0,0,0,0-0.1,0.1l-0.1,0l0,0c-0.2,0-0.3,0-0.4-0.1l0,0l0,0
					l0,0.1c0.4,0.7,1.2,1,2,1.2l-0.5,0.2c-0.1,0-0.2,0.1-0.2,0.2c0,0.1,0,0.2,0.1,0.2c0.1,0,0.1,0,0.2,0c0.1,0.2,0,0.4,0.2,0.5
					c0.2,0.1,0.4-0.1,0.5-0.2c0,0.1-0.1,0.2-0.1,0.4c0.1,0.1,0.1,0.2,0.2,0.2c0.2,0,0.4-0.1,0.5-0.2c0.1,0.3,0,0.7,0.2,1l0,0
					c0.1,0,0.1,0,0.1,0c0.1-0.1,0.1-0.3,0.2-0.4l0.2,0.6c0.1,0.1,0.3,0.2,0.5,0.1c0.4-0.6,0.3-1.4,0.4-2l0.1-0.6
					c0.3,0.3,0.6-0.3,1-0.2c0.7,0.6,0.5,2,1.5,2.3c0.2-0.1,0.1-0.3,0.1-0.4h0c0.2,0.4,0.2,0.9,0.7,1.1l0,0l0.3-0.5
					c0.2,0.9,1.1,1.4,1,2.4c0.2,0.7,0.6,1.5,1.1,1.8l0.1,0c0.2-0.2-0.1-0.5-0.1-0.7l0-0.1c0.4,0.4,0.6,0.9,1.1,1.1
					c0.4-0.3,0-0.8,0-1.2l0,0l0.2,0.5c0.1,0.4,0.2,1,0.6,1.1c0,0,0.1,0,0.1,0c0.3-0.2,0.1-0.5,0.2-0.9l-0.2-0.8
					c0.6,0.7,0.9,1.5,1.9,1.7c0.1,0,0.2,0.1,0.3,0c0.1,0,0.1-0.2,0.1-0.3c-0.1-0.2-0.3-0.2-0.3-0.4c0.3,0.2,0.7,0.5,1.1,0.5
					C214.6,108.9,214.7,108.8,214.7,108.7z"/>
			</g>
			<path class="st4" d="M199.5,86.4c0,0,1,1.7,3.7,1.8c2.7,0.1,5-1.4,6.9,0.2c1.9,1.7,1.5,1.4,1.5,5.2c0,3.9,1.7,3.9,1.9,4.4
				c0.1,0.5,0.3,0.9,1.5,1.2c1.2,0.3,0.6,1.3,0.9,1.6c0.4,0.4,1,0.7,1.7,1.2s2.3,1.9,2.3,1.9s2.6-13.9-6-20.3
				c-8.2-6.2-19.1-0.8-19.1-0.8s1.9,0.9,2,2C196.9,86.1,199.1,84.8,199.5,86.4z"/>
			<g>
				<path class="st13" d="M191.1,102c0,0,1.1-0.4,2,0.4c1,0.9,3.5,4.2,3.5,4.2s4,1.9,4.9,2.7c0.9,0.8,1.3,1.2,1.3,1.2l-5.6,7.5
					l-7.1-3.2l-4.8-5.1L191.1,102z"/>
				<g>
					<path class="st12" d="M197,117.2c-1-0.9-1.9-1.5-2.9-2.1l-2.4-0.9c1.6-2.2,3.2-4.5,5.1-7c0.3,0.1,0.6,0.2,1,0.3
						c1.4,0.4,2.7,1,3.8,1.8l0.9,0.8l-0.4,0.6L197,117.2z M190.9,113.6c-1.1-1.8-2.5-3.3-4-4.4l-0.1-0.1l4.6-6.3l0,0l0.4-0.6
						c0.4,0.1,1,0.6,1.4,1c0.2,0.2,0.4,0.3,0.5,0.5c0.6,0.6,1.1,1.4,1.7,2.2c0.2,0.3,0.4,0.5,0.6,0.9l-3.9,5.5L190.9,113.6z
						 M203.2,111.6c0.2-0.2,0.3-0.5,0.5-0.8c-1.3-1.4-2.8-2.8-4.8-3.5c-0.9-0.3-1.6-0.6-2.3-0.8c-0.8-1.1-2.1-3.4-4.7-5.1
						c-0.5,0.1-0.9-0.3-1.3-0.4l-0.5,0.7l-2,2.5c-1.2,1.7-2.5,3.3-3.6,5c1.8,2,4,3.8,6,5.8v0c2.4,1.4,4.7,2.9,7,4.3l1.2-1.5
						C200.2,115.7,201.9,113.7,203.2,111.6z"/>
				</g>
			</g>
		</g>
		<g>
			<path class="st8" d="M69.5,124.6c-1.8,1.7,8.4,6.1,8.4,6.1s19.6-16.6,21.9-20.6c2.3-4.1-2.6-4.1-11-0.1
				C80.4,114,72.8,121.4,69.5,124.6z"/>
			<path class="st9" d="M79.8,95.3c3.9,8.4-2.8,33.5-2.8,33.5s-23.6-10.6-27.5-19c-4-8.4-0.4-18.5,8-22.5
				C65.9,83.4,75.9,86.9,79.8,95.3z"/>
			<polygon class="st10" points="77.1,128.8 80.9,103.5 55.1,115.9 			"/>
			<g>
				<path class="st11" d="M66.6,87.2c-2.8-0.3-5.5,0.2-8.1,1.4c-3.7,1.8-6.5,4.9-7.9,8.7c-1.4,3.9-1.2,8,0.6,11.7
					c2.8,6,17.8,14,25.1,17.5c2-7.9,5.3-24.7,2.5-30.7c-1.7-3.7-4.8-6.5-8.6-7.8C69,87.5,67.8,87.3,66.6,87.2z M78.4,130.8l-1.6-0.7
					c-1-0.4-24.1-10.9-28.3-19.7c-2.1-4.4-2.3-9.4-0.7-14.1c1.7-4.6,5-8.4,9.4-10.5s9.4-2.4,14-0.7c4.6,1.6,8.3,5,10.4,9.4
					c4.1,8.8-2.5,33.5-2.7,34.6L78.4,130.8z"/>
			</g>
			<g>
				<path class="st8" d="M64.8,106.8c0,0-0.1,0-0.2,0C64.7,106.8,64.8,106.8,64.8,106.8L64.8,106.8L64.8,106.8z"/>
				<path class="st12" d="M63.9,107.1c0,0.1-0.1,0.1-0.1,0.1l0,0l0,0v0c-0.1,0-0.1-0.2-0.2-0.3l0-0.1c0.1-0.1,0.2-0.2,0.3-0.2v0l0,0
					L63.9,107.1z M63.3,106.9c-0.1,0.2-0.2,0.3-0.2,0.5c0,0-0.1,0-0.1,0.1h0c-0.1-0.1,0-0.2,0-0.4c0.1-0.1,0.2-0.3,0.2-0.5
					C63.4,106.7,63.3,106.8,63.3,106.9z M63.3,107.9L63.3,107.9L63.3,107.9L63.3,107.9C63.3,107.9,63.3,107.8,63.3,107.9L63.3,107.9
					C63.3,107.9,63.3,107.9,63.3,107.9z M64.5,106.8L64.5,106.8c0,0,0.1-0.1,0.2-0.2c0.1,0,0.1-0.2-0.1-0.4l-0.1-0.1
					c-0.1-0.1-0.3-0.1-0.4-0.1c-0.1,0.1-0.2,0.1-0.2,0.2c0.1,0,0.1-0.1,0.2-0.1c-0.1,0.1-0.2,0.2-0.2,0.2v0h0
					c-0.1,0.1-0.2,0.2-0.4,0.2c-0.1-0.1-0.2-0.1-0.2-0.1c-0.2,0.1-0.1,0.4-0.3,0.6c-0.1,0.2-0.1,0.5-0.1,0.7l0.4,0.6
					c0.1,0,0.2,0.1,0.3,0.1l0.1-0.4l0.2-0.3C64.1,107.5,64.2,107,64.5,106.8L64.5,106.8L64.5,106.8z"/>
				<path class="st12" d="M70.7,100.4L70.7,100.4L70.7,100.4c0.2-0.1,0.2-0.4,0.6-0.4C71.2,100.2,70.9,100.3,70.7,100.4z
					 M70.3,100.9c-0.1,0-0.1,0-0.2,0.1l0,0L70,101c-0.1,0-0.1,0-0.2,0c0-0.1,0.1-0.1,0.1-0.2c0,0,0,0,0,0c-0.2-0.1-0.5-0.1-0.7-0.1
					c-0.2,0-0.4,0-0.6,0c0.6,0,1.4-0.2,2.1-0.3L70.3,100.9z M69.6,101.1L69.6,101.1l0.1,0.2l0,0l-0.1,0.1c-0.1,0-0.1,0-0.1,0
					c0,0-0.1,0-0.1,0h0c-0.1,0-0.1-0.1-0.1-0.1c0,0,0-0.1,0-0.1l-0.4-0.1l0-0.1L69.6,101.1L69.6,101.1L69.6,101.1z M65.8,102.7
					L65.8,102.7L65.8,102.7c0-0.3,0-0.5,0.3-0.7c0.5-0.3,1-0.5,1.5-0.9l-0.1,0l0.1,0C67,101.7,66.1,101.9,65.8,102.7z M65.5,104.2
					c-0.1,0.1-0.1,0.3-0.2,0.5l0,0.2c0,0,0,0-0.1,0.1l-0.3,0h0c0.2-0.4,0.5-0.8,0.7-1.2c0,0,0,0,0,0.1l0-0.1
					C65.6,103.9,65.6,104.1,65.5,104.2z M64.9,105.8c0,0.1,0.1,0.2,0.1,0.3l0-0.1C64.9,105.9,64.9,105.9,64.9,105.8L64.9,105.8
					c-0.1-0.1-0.1-0.2-0.2-0.2C64.7,105.7,64.8,105.7,64.9,105.8L64.9,105.8L64.9,105.8z M63.7,104.2c-0.4-0.1-0.7-0.5-1-0.8
					c-0.1-0.2-0.3-0.3-0.4-0.3c-0.1,0-0.2-0.1-0.4-0.1l-0.1,0l-0.3-0.2l0,0c0.3,0.1,0.7,0.2,1.1,0.2c0.4,0.4,0.8,0.9,1.3,1.1l0,0.1
					l-0.1,0C63.9,104.2,63.8,104.2,63.7,104.2z M61.1,103.7c-0.2,0-0.4,0.1-0.5,0l0,0c0-0.1,0-0.2-0.1-0.2l-0.4,0h0
					c-0.1-0.1,0-0.2,0-0.2c-0.1-0.1-0.3,0-0.4,0c0,0-0.1,0-0.1-0.1c0-0.1,0.1-0.2,0.1-0.3c0,0,0.1,0,0.2,0l0,0l0,0
					c0,0.1,0,0.2,0.1,0.2c0.1,0.1,0.3,0,0.4,0l0,0h0c0,0.1,0,0.3,0.2,0.3l0.2,0h0c0,0,0,0.1,0,0.2C60.9,103.6,61,103.7,61.1,103.7
					L61.1,103.7L61.1,103.7z M76.4,98.8c-0.1,0-0.1-0.1-0.2,0c-1,0.5-2.1,0.5-3.2,0.6l-1,0c-0.1-0.1-0.1-0.2-0.2-0.3
					c-1.4,0.5-3.2,0.2-4.3,1.4c-1.4,0.5-2.1,1.6-2.2,3c-0.1,0.2-0.2,0.4-0.3,0.5c-1.1-0.2-1.5-1.8-2.8-1.8c-0.7-0.2-1.3-0.4-1.9-0.6
					c-0.7-0.4-1.5,0.1-2.2,0.4c-0.2,0.1-0.5,0.2-0.7,0.4v0l0,0c-0.1,0.1,0,0.1,0,0.2c0.3,0.1,0.6-0.2,0.9-0.2v0l0,0l0,0.1
					c0,0,0,0.1,0,0.1c0.3,0.1,0.5-0.2,0.8-0.2v0h0c0,0.1-0.1,0.1-0.1,0.2c0,0.1,0.1,0.2,0.1,0.2h-0.4l0,0h0
					c-0.1-0.1-0.1-0.1-0.2-0.1c-0.1,0-0.3,0.1-0.4,0.1h0c-0.1,0-0.1,0-0.2,0l0,0c0,0-0.1-0.1-0.1-0.1L57,103l0,0l0,0
					c0-0.1,0-0.2-0.1-0.2c-1.1,0.4-2.1,1.1-3.2,1.4c0,0,0,0.1,0,0.1c0,0,0,0.1,0.1,0.1c0.3,0.2,0.7,0.1,1,0
					c-0.1,0.1-0.2,0.1-0.2,0.2c0.1,0.2,0.4,0.2,0.6,0.2l0.7-0.2l-0.5,0.3c0,0.1,0,0.1,0.1,0.2c0.3,0.2,0.7,0,1,0c0,0.1,0,0.1,0,0.1
					c0,0.1,0,0.2,0.1,0.2c0.3,0.1,0.7-0.1,0.9-0.2c0,0.1,0.1,0.1,0.1,0.2c0.5,0,0.8-0.3,1.1-0.5c-0.1,0.2-0.3,0.3-0.4,0.5
					c0,0.1,0,0.2,0.1,0.2c0.4,0,0.6-0.2,0.9-0.4c0,0,0,0.1,0.1,0.1c0.4,0,0.6-0.3,0.9-0.5l0.1,0.1c0.2,0.1,0.5,0,0.6-0.2l0.5,0.1
					c0,0.1,0,0.1,0,0.2c0,0.1,0.2,0.3,0.3,0.3c0.1,0,0.2-0.1,0.2-0.2l0,0c0,0.2,0.1,0.2,0.2,0.3c0.1,0.1,0.2,0.2,0.3,0.1
					c0.1,0,0-0.1,0-0.2c0-0.1,0-0.2,0-0.2c0.1,0.1,0.1,0.2,0.2,0.3c0.2,0,0.5,0,0.6-0.1c0-0.1,0-0.1,0-0.1c0.1,0.2,0.4,0.2,0.5,0.2
					l0,0c-0.2,0.3-0.4,0.5-0.5,0.7c0,0.1,0,0.2,0.1,0.3c0,0,0.1-0.1,0-0.1c0-0.1,0-0.2,0-0.2c0,0,0.1-0.2,0.3-0.3
					c0,0,0.1-0.1,0.2-0.1c0,0,0,0,0-0.1c0,0,0-0.1,0-0.1v0c0,0,0.1-0.2,0.1-0.2v0l0,0c0,0,0,0.1,0,0.2l0,0c0,0,0,0.1,0,0.1
					c0.1,0.2,0.3,0.1,0.4,0.3c0,0,0,0.1,0.1,0.3c0.1,0.3,0.2,0.4,0.1,0.5c-0.1,0.1-0.1,0.1-0.1,0.1l0.1-0.2c0,0,0-0.1,0-0.1
					c0,0,0,0,0,0.1l0,0v0c-0.1,0.1-0.2,0.2-0.2,0.3l0,0v0l0.1,0c0.7-0.1,1.1-0.5,1.6-0.9l0,0.4c0,0.1,0,0.2,0,0.2
					c0.1,0.1,0.1,0.1,0.2,0c0,0,0-0.1,0.1-0.1c0.2,0,0.3,0.1,0.4,0.1c0.2-0.1,0-0.3,0.1-0.4c0.1,0,0.1,0.2,0.2,0.2
					c0.1,0,0.2,0,0.2-0.1c0.1-0.1,0.1-0.3,0-0.4c0.3,0.1,0.5,0.3,0.8,0.2l0,0c0,0,0-0.1,0-0.1c0-0.1-0.2-0.2-0.2-0.2l0.5,0.1
					c0.1,0,0.2-0.2,0.3-0.3c-0.3-0.5-0.8-0.7-1.3-1l-0.4-0.3c0.3-0.1,0.1-0.5,0.3-0.7c0.6-0.3,1.5,0.4,2.1-0.2
					c0-0.2-0.2-0.2-0.3-0.3l0,0c0.3,0,0.7,0.2,1-0.1l0,0l-0.2-0.4c0.7,0.2,1.4-0.2,2,0.2c0.5,0.1,1.2,0.1,1.7-0.1l0-0.1
					c-0.1-0.2-0.4-0.1-0.5-0.2l0-0.1c0.4-0.1,0.9-0.1,1.2-0.3c-0.1-0.4-0.6-0.3-0.8-0.4l0,0l0.4,0.1c0.3,0.1,0.7,0.2,1-0.1
					c0,0,0-0.1,0-0.1c0-0.3-0.3-0.3-0.5-0.5l-0.6-0.2c0.7-0.1,1.4-0.1,1.9-0.7c0-0.1,0.1-0.1,0.1-0.2c0-0.1-0.1-0.2-0.1-0.2
					c-0.2,0-0.3,0.1-0.4,0.1c0.3-0.1,0.6-0.3,0.7-0.6C76.5,99,76.5,98.9,76.4,98.8z"/>
			</g>
			<path class="st4" d="M55.4,101.4c0,0,1.6-0.1,2.6-1.9c1.1-1.8,0.9-4,2.7-4.7c1.9-0.7,1.5-0.5,4.2,0.8c2.7,1.4,3.3,0.2,3.7,0.3
				c0.4,0.1,0.7,0.1,1.4-0.6c0.7-0.7,1.1,0.1,1.5,0c0.4-0.1,0.8-0.5,1.5-0.8c0.7-0.3,2.2-1,2.2-1s-8.6-6.9-16.3-3.2
				c-7.3,3.5-7.7,13-7.7,13s1.3-1,2.2-0.6C54.2,103.1,54.1,101.1,55.4,101.4z"/>
			<g>
				<path class="st13" d="M63,112.9c0,0,0.1-0.9,1.1-1.3s4.2-0.9,4.2-0.9s2.8-2.1,3.7-2.4c0.9-0.3,1.3-0.5,1.3-0.5l3.1,6.6l-4.9,3.8
					l-5.3,1.5L63,112.9z"/>
				<g>
					<path class="st12" d="M75.7,114.3c-1,0.4-1.8,0.8-2.5,1.3l-1.6,1.4c-0.9-1.9-1.9-3.9-2.9-6.1c0.2-0.2,0.4-0.4,0.6-0.6
						c0.8-0.8,1.7-1.5,2.6-2l0.9-0.3l0.2,0.5L75.7,114.3z M70.9,117.2c-1.7,0.1-3.2,0.5-4.6,1.2l-0.1,0l-2.7-5.5v0l-0.2-0.5
						c0.3-0.3,0.8-0.5,1.2-0.6c0.2-0.1,0.4-0.1,0.5-0.2c0.7-0.2,1.4-0.3,2.1-0.4c0.3,0,0.5-0.1,0.8-0.1l2.3,4.7L70.9,117.2z
						 M74.1,107.9c-0.1-0.2-0.2-0.4-0.3-0.6c-1.5,0.4-3,1-4.2,2.1c-0.6,0.5-1,0.9-1.4,1.3c-1.1,0.1-3.2,0.2-5.3,1.4
						c-0.1,0.4-0.5,0.5-0.8,0.7l0.3,0.6l1,2.3c0.7,1.4,1.3,2.9,2.1,4.3c2.1-0.5,4.2-1.4,6.2-2.1v0c1.9-1.1,3.8-2.2,5.6-3.3l-0.6-1.4
						C75.8,111.5,75.1,109.6,74.1,107.9z"/>
				</g>
			</g>
		</g>
	</g>
</g>
</svg>
