<?xml version="1.0" encoding="utf-8"?>
<!-- Generator: Adobe Illustrator 21.0.0, SVG Export Plug-In . SVG Version: 6.00 Build 0)  -->
<svg version="1.1" id="Layer_1" xmlns="http://www.w3.org/2000/svg" xmlns:xlink="http://www.w3.org/1999/xlink" x="0px" y="0px"
	 viewBox="0 0 546 105" style="enable-background:new 0 0 546 105;" xml:space="preserve">
<style type="text/css">
	.st0{fill-rule:evenodd;clip-rule:evenodd;fill:#DF5426;}
	.st1{fill-rule:evenodd;clip-rule:evenodd;fill:#3D3D3D;}
</style>
<g>
	<path class="st0" d="M46.2,54.7h-7.7l1.8-7.1H48L46.2,54.7z M59.8,47.6l0.3-3.5l-0.4-0.5h-7.3l2.4-10.8l-0.4-0.7h-3.2l-2.5,11.5
		h-7.6l2.4-10.9l-0.3-0.6h-3.2l-2.5,11.5h-7.8l-0.3,3.5l0.4,0.5h6.9l-1.8,7.1h-7.6l-0.3,3.6l0.4,0.4H34l-2.5,11.5l0.4,0.5h3.3
		l2.6-12h7.7l-2.5,11.5l0.3,0.5h3.2l2.7-12h8.3l0.3-3.4l-0.4-0.5h-7.4l1.8-7.1H59.8z"/>
	<path class="st1" d="M82,26.1c-3.4,0-6.4,0.6-9.1,1.9c-2.6,1.2-4.7,3-6.2,5.2c-1.5,2.2-2.2,4.7-2.2,7.4c0,2.4,0.6,4.5,1.8,6.1
		c1.1,1.7,2.5,3,4.1,4c1.6,1,3.7,2.1,6.2,3.2c2.5,1.1,4.3,2.1,5.5,2.9c1.2,0.8,1.8,1.9,1.8,3.1c0,1.1-0.5,2-1.4,2.8
		c-0.9,0.8-2.2,1.2-4,1.2c-1.7,0-3.7-0.4-6-1.3c-2.3-0.9-4.4-2.1-6.4-3.8l-1.2,0.7l-1.6,10.4c4.6,2,9.3,2.9,14,2.9
		c3.6,0,6.7-0.6,9.4-1.9c2.7-1.3,4.8-3,6.3-5.2c1.5-2.2,2.2-4.7,2.2-7.4c0-2.4-0.6-4.5-1.8-6.2c-1.2-1.7-2.6-3-4.2-4
		c-1.6-1-3.7-2.1-6.3-3.4c-2.5-1.1-4.3-2.1-5.4-2.9c-1.2-0.8-1.7-1.8-1.7-3c0-1,0.5-1.9,1.4-2.7c0.9-0.8,2.1-1.2,3.7-1.2
		c1.3,0,2.8,0.3,4.6,1s3.5,1.6,5.3,2.8l1.7-0.6l1.8-9.8C90.1,27,86,26.1,82,26.1z"/>
	<path class="st1" d="M114.6,46.6c2,0,3.5,0.8,4.3,2.3c0.8,1.5,1.2,4.3,1.2,8.2c0,3-0.4,5.1-1.2,6.3c-0.8,1.2-2.1,1.8-3.9,1.8
		c-1.4,0-2.5-0.3-3.3-1c-0.8-0.6-1.4-1.7-1.8-3.3c-0.3-1.5-0.5-3.7-0.5-6.4c0-2.9,0.4-5,1.1-6.2C111.4,47.2,112.7,46.6,114.6,46.6z
		 M115.3,39.1c-5.3,0-9.3,1.5-12.1,4.5c-2.8,3-4.2,7.3-4.2,13c0,5.2,1.3,9.2,3.9,11.9c2.6,2.8,6.4,4.1,11.3,4.1
		c5.3,0,9.3-1.5,12.1-4.5c2.8-3,4.2-7.3,4.2-13c0-5.2-1.3-9.2-3.9-12C124,40.5,120.2,39.1,115.3,39.1z"/>
	<path class="st1" d="M142.6,40.6h-10.5L144,73.7c-1.8,1.7-3.6,3-5.5,3.9c-1.9,0.9-4.2,1.5-6.9,2l-0.4,1.1c1.4,2.7,3,4.9,4.8,6.7
		l0.8,0.1c3.4-1,6.2-2.2,8.4-3.5c2.2-1.3,4-3,5.4-5c1.4-2,2.7-4.7,3.8-7.9l10.2-30.4h-9.4L154,47l-4.8,15.6h-0.6l-4.9-16.4
		L142.6,40.6z"/>
	<path class="st1" d="M187.8,65.6c-2.1,0-4.5-0.2-7.3-0.6l-0.1-6l0.4-22c2.1-0.3,4.3-0.4,6.8-0.4c3.4,0,5.8,1.2,7.3,3.5
		c1.5,2.3,2.2,6.2,2.2,11.6C197.1,61,194,65.6,187.8,65.6z M188.5,27.6h-19.1h-0.1L170,60l-0.6,13.6h0.1h16.2
		c7.5,0,13.2-2.1,17.2-6.4c4-4.3,6-10.5,6-18.5c0-6.8-1.8-12-5.2-15.6C200.2,29.4,195.1,27.6,188.5,27.6z"/>
	<path class="st1" d="M232.4,51.6h-10.1c0.4-1.6,1.1-2.9,2.1-3.7c1-0.9,2.3-1.3,3.9-1.3c2.8,0,4.2,1.4,4.2,4.1L232.4,51.6z
		 M241.8,56.2c0.3-1.5,0.4-2.8,0.4-4.2c0-4.1-1.2-7.2-3.6-9.5c-2.4-2.3-5.8-3.4-10.1-3.4c-5,0-9,1.5-12,4.5c-2.9,3-4.4,7.1-4.4,12.3
		c0,5.2,1.5,9.3,4.6,12.3c3.1,3,7.3,4.5,12.6,4.5c3,0,6.4-0.6,10.1-1.7l1.7-7.8l-0.9-0.5c-4.1,1.4-7.3,2.1-9.8,2.1
		c-2.5,0-4.4-0.6-5.7-1.7c-1.4-1.1-2.2-2.9-2.5-5.3h18.3L241.8,56.2z"/>
	<path class="st1" d="M331.1,65.6c-2.1,0-4.5-0.2-7.3-0.6l-0.1-6l0.4-22c2-0.3,4.3-0.4,6.8-0.4c3.4,0,5.8,1.2,7.3,3.5
		c1.5,2.3,2.2,6.2,2.2,11.6C340.4,61,337.3,65.6,331.1,65.6z M331.8,27.6h-19h-0.1l0.6,32.4l-0.6,13.6h0.1H329
		c7.5,0,13.2-2.1,17.2-6.4c4-4.3,6-10.5,6-18.5c0-6.8-1.8-12-5.2-15.6C343.5,29.4,338.4,27.6,331.8,27.6z"/>
	<path class="st1" d="M375.8,51.6h-10.1c0.4-1.6,1.1-2.9,2.1-3.7c1-0.9,2.3-1.3,3.9-1.3c2.8,0,4.2,1.4,4.2,4.1L375.8,51.6z
		 M385.1,56.2c0.3-1.5,0.4-2.8,0.4-4.2c0-4.1-1.2-7.2-3.6-9.5c-2.4-2.3-5.8-3.4-10.1-3.4c-5,0-9,1.5-12,4.5c-2.9,3-4.4,7.1-4.4,12.3
		c0,5.2,1.5,9.3,4.6,12.3c3.1,3,7.3,4.5,12.6,4.5c3,0,6.4-0.6,10.1-1.7l1.7-7.8l-0.9-0.5c-4.1,1.4-7.3,2.1-9.8,2.1
		c-2.5,0-4.4-0.6-5.7-1.7c-1.4-1.1-2.2-2.9-2.5-5.3h18.3L385.1,56.2z"/>
	<polygon class="st1" points="273.6,64.6 259.2,64.6 259,59.3 259.6,27.6 248.1,27.6 248.7,60 248.1,73.6 273.5,73.6 274.3,65.4 	
		"/>
	<path class="st1" d="M294.1,57.9l-0.1,5.1c-1.7,1.4-3.3,2.1-4.8,2.1c-1,0-1.8-0.3-2.4-0.9c-0.6-0.6-0.9-1.4-0.9-2.5
		c0-0.8,0.2-1.4,0.5-1.8c0.3-0.4,0.9-0.7,1.6-0.8L294.1,57.9z M292,39.1c-2.3,0-4.7,0.3-7.1,1c-2.4,0.7-4.7,1.5-6.8,2.7l1.3,7.1
		l0.7,0.5c2.1-1.3,4-2.3,5.6-2.9c1.6-0.6,3.1-0.9,4.5-0.9c1.4,0,2.4,0.3,3,1c0.6,0.6,1,1.7,1,3.1v2l-10.4,1.8
		c-5,0.9-7.5,3.7-7.5,8.5c0,3.1,1,5.6,3,7.4c2,1.8,4.7,2.7,8.1,2.7c2.4-0.9,4.8-2.6,7.1-5.1h0.5c0.4,1.5,1.1,2.7,2.1,3.6
		c1,0.8,2.2,1.3,3.6,1.4c2.2-0.2,4.1-0.8,5.7-1.9l1-5.8l-0.8-0.7c-0.6,0.2-1.1,0.3-1.5,0.3c-0.5,0-0.9-0.1-1.1-0.4
		c-0.2-0.3-0.3-0.8-0.3-1.4c0-1.2,0.1-3.5,0.4-6.9c0-1.2,0.1-2.6,0.2-4c0.1-1.4,0.1-2.6,0.1-3.7c0-3.1-1.1-5.4-3.2-7.1
		C298.9,40,295.9,39.1,292,39.1z"/>
	<path class="st1" d="M413.6,26.1c-7.1,0-12.6,2.1-16.5,6.2c-3.9,4.2-5.8,10-5.8,17.6c0,7.5,1.8,13.2,5.5,17.2c3.6,4,9,5.9,16,5.9
		c3.8,0,7.3-0.7,10.6-2.1l0.9-9.8l-1-0.6c-1.4,0.8-3,1.3-4.7,1.8c-1.7,0.4-3.4,0.6-4.9,0.6c-7,0-10.4-4.9-10.4-14.8
		c0-4.6,0.8-7.9,2.4-10c1.6-2.1,4.1-3.2,7.5-3.2c1.6,0,3.2,0.3,4.9,0.8c1.7,0.5,3.1,1.3,4.4,2.2l0.8-0.4l2-9.3
		C421.8,26.9,417.9,26.1,413.6,26.1z"/>
	<path class="st1" d="M460.8,65.8c-0.6,0.2-1.1,0.3-1.6,0.3c-0.5,0-0.8-0.1-1-0.4s-0.3-0.8-0.3-1.4l0.6-24l-10.5,0.9V63
		c-0.9,0.8-1.7,1.3-2.5,1.6c-0.8,0.3-1.5,0.5-2.4,0.5c-2.5,0-3.7-1.5-3.6-4.6l0.1-20.3l-10.6,0.9l0.3,15.6l-0.2,8c0,3,0.9,5.4,2.8,7
		c1.9,1.6,4.6,2.5,8.1,2.5c2.8-0.9,5.5-2.7,8.2-5.5h0.7c1,3.1,2.9,5,5.6,5.5c2,0,4.1-0.6,6-1.9l1-5.8L460.8,65.8z"/>
	<path class="st1" d="M472.8,40.6h-10.5l11.9,33.1c-1.8,1.7-3.6,3-5.5,3.9c-1.9,0.9-4.2,1.5-6.9,2l-0.4,1.1c1.4,2.7,3,4.9,4.8,6.7
		l0.8,0.1c3.4-1,6.2-2.2,8.4-3.5c2.2-1.3,4-3,5.4-5c1.4-2,2.7-4.7,3.8-7.9l10.2-30.4h-9.4l-1.2,6.4l-4.8,15.6h-0.6l-4.9-16.4
		L472.8,40.6z"/>
	<path class="st1" d="M511.7,46.6c2,0,3.5,0.8,4.3,2.3c0.8,1.5,1.2,4.3,1.2,8.2c0,3-0.4,5.1-1.2,6.3c-0.8,1.2-2.1,1.8-3.9,1.8
		c-1.4,0-2.5-0.3-3.3-1c-0.8-0.6-1.4-1.7-1.8-3.3c-0.3-1.5-0.5-3.7-0.5-6.4c0-2.9,0.4-5,1.1-6.2C508.6,47.2,509.9,46.6,511.7,46.6z
		 M512.5,39.1c-5.3,0-9.3,1.5-12.1,4.5c-2.8,3-4.2,7.3-4.2,13c0,5.2,1.3,9.2,3.9,11.9c2.6,2.8,6.4,4.1,11.3,4.1
		c5.3,0,9.3-1.5,12.1-4.5c2.8-3,4.2-7.3,4.2-13c0-5.2-1.3-9.2-3.9-12C521.2,40.5,517.4,39.1,512.5,39.1z"/>
</g>
</svg>
